{
  "asset": {
    "version": "2.0",
    "generator": "babylon.js glTF exporter for 3dsmax 2020 v20200527.2"
  },
  "extensionsUsed": ["KHR_texture_transform"],
  "extensionsRequired": ["KHR_texture_transform"],
  "scene": 0,
  "scenes": [{
    "nodes": [0, 1]
  }],
  "nodes": [{
    "mesh": 0,
    "scale": [0.00313420733, 0.0052324, 0.0031394395],
    "name": "PineTree"
  }, {
    "name": "Default light"
  }],
  "meshes": [{
    "primitives": [{
      "attributes": {
        "POSITION": 1,
        "NORMAL": 2,
        "TEXCOORD_0": 3
      },
      "indices": 0,
      "material": 0
    }],
    "name": "PineTree"
  }],
  "accessors": [{
    "bufferView": 0,
    "componentType": 5123,
    "count": 966,
    "type": "SCALAR",
    "name": "accessorIndices"
  }, {
    "bufferView": 1,
    "componentType": 5126,
    "count": 966,
    "max": [40.6551933, 85.3474655, 40.70549],
    "min": [-40.94969, -0.410164833, -43.6116028],
    "type": "VEC3",
    "name": "accessorPositions"
  }, {
    "bufferView": 1,
    "byteOffset": 11592,
    "componentType": 5126,
    "count": 966,
    "type": "VEC3",
    "name": "accessorNormals"
  }, {
    "bufferView": 2,
    "componentType": 5126,
    "count": 966,
    "type": "VEC2",
    "name": "accessorUVs"
  }],
  "bufferViews": [{
    "buffer": 0,
    "byteLength": 1932,
    "name": "bufferViewScalar"
  }, {
    "buffer": 0,
    "byteOffset": 1932,
    "byteLength": 23184,
    "byteStride": 12,
    "name": "bufferViewFloatVec3"
  }, {
    "buffer": 0,
    "byteOffset": 25116,
    "byteLength": 7728,
    "byteStride": 8,
    "name": "bufferViewFloatVec2"
  }],
  "buffers": [{
    "uri": "tree.bin",
    "byteLength": 32844
  }],
  "materials": [{
    "pbrMetallicRoughness": {
      "baseColorTexture": {
        "index": 0,
        "extensions": {
          "KHR_texture_transform": {
            "offset": [0.0, 0.0],
            "scale": [1.0, 1.0],
            "texCoord": 0
          }
        }
      },
      "metallicFactor": 0.0,
      "roughnessFactor": 0.450053632
    },
    "name": "Pinetree"
  }],
  "textures": [{
    "sampler": 0,
    "source": 0,
    "name": "tree.png"
  }],
  "images": [{
    "uri": "./tree.png"
  }],
  "samplers": [{
    "magFilter": 9729,
    "minFilter": 9987
  }]
}
